<?xml version="1.0" encoding="utf-8"?>
<!-- Generator: Adobe Illustrator 23.0.1, SVG Export Plug-In . SVG Version: 6.00 Build 0)  -->
<svg version="1.1" id="Layer_1" xmlns="http://www.w3.org/2000/svg" xmlns:xlink="http://www.w3.org/1999/xlink" x="0px" y="0px"
	 viewBox="0 0 301.1 178" style="enable-background:new 0 0 301.1 178;" xml:space="preserve">
<style type="text/css">
	.st0{fill:#FCAF17;}
</style>
<g>
	<path d="M63.9,134.3c0,4.5-0.8,6.4-2.2,7.8c-1.2,1.2-3,1.8-5.5,1.8H34.1v-6.1h4.1v-21.9h-4.1v-6.1h22.1c2.6,0,4.2,0.4,5.4,1.6
		c1.4,1.5,2,3.5,2,7.3c0,4.9-1.7,6.7-5,7.6v0.1C62.3,127.2,63.9,128.9,63.9,134.3z M53.2,123.6c1.1,0,1.5,0,1.8-0.3
		c0.4-0.4,0.6-1.2,0.6-3.7c0-2.4-0.2-3.1-0.6-3.5c-0.2-0.2-0.6-0.4-1.8-0.4h-7.5v7.8H53.2z M45.7,137.9h7.7c1.1,0,1.6-0.1,1.9-0.4
		c0.3-0.3,0.6-0.9,0.6-3.9c0-3-0.2-3.7-0.6-4.1c-0.3-0.3-0.7-0.4-1.8-0.4h-7.7V137.9z"/>
	<path d="M69.2,142.2c-1.8-1.8-2.4-4.2-2.4-11.7c0-7.6,0.7-10,2.4-11.8c1.1-1.2,2.6-1.6,5.3-1.6h8.7c2.7,0,4.2,0.4,5.4,1.6
		c1.8,1.8,2.4,4.2,2.4,11.8c0,7.6-0.6,10-2.4,11.7c-1.2,1.2-2.6,1.7-5.4,1.7h-8.7C71.8,143.9,70.3,143.4,69.2,142.2z M74.6,137.6
		c0.3,0.3,0.7,0.4,2,0.4h4.5c1.3,0,1.7-0.1,1.9-0.4c0.4-0.4,0.6-1.4,0.6-7.1c0-5.7-0.2-6.7-0.6-7.1c-0.3-0.3-0.7-0.5-1.9-0.5h-4.5
		c-1.3,0-1.7,0.1-2,0.5c-0.4,0.4-0.6,1.4-0.6,7.1C74,136.2,74.2,137.2,74.6,137.6z"/>
	<path d="M96.1,142.2c-1.8-1.8-2.4-4.2-2.4-11.7c0-7.6,0.7-10,2.4-11.8c1.1-1.2,2.6-1.6,5.3-1.6h8.7c2.7,0,4.2,0.4,5.4,1.6
		c1.8,1.8,2.4,4.2,2.4,11.8c0,7.6-0.6,10-2.4,11.7c-1.2,1.2-2.6,1.7-5.4,1.7h-8.7C98.7,143.9,97.3,143.4,96.1,142.2z M101.6,137.6
		c0.3,0.3,0.7,0.4,2,0.4h4.5c1.3,0,1.7-0.1,1.9-0.4c0.4-0.4,0.6-1.4,0.6-7.1c0-5.7-0.2-6.7-0.6-7.1c-0.3-0.3-0.7-0.5-1.9-0.5h-4.5
		c-1.3,0-1.7,0.1-2,0.5c-0.4,0.4-0.6,1.4-0.6,7.1C101,136.2,101.2,137.2,101.6,137.6z"/>
	<path d="M138.8,129.7l5.7,8.4h3.6v5.8h-8.3l-6.7-10.7h-2.8v4.9h3v5.7h-13.8v-5.8h3.6v-24.3h-3.6V108h10.9v19.7h2.8l4.2-5.1h-3.1
		v-5.5h13.5v5.6h-2.9L138.8,129.7z"/>
	<path d="M150.3,143.9v-5.8h3.7v-15.1h-3.7v-5.8h11.1v21h3.6v5.7H150.3z M153.6,107.4h7.6v6.4h-7.6V107.4z"/>
	<path d="M173.5,132.3c0,4.4,0.3,5.2,0.6,5.5c0.3,0.4,0.8,0.5,2.3,0.5h3.7c1.5,0,1.9-0.1,2.2-0.5c0.2-0.3,0.3-1,0.4-2.9h6.8
		c0,4-0.5,6-1.8,7.4c-0.8,0.8-1.9,1.6-4.8,1.6h-8.9c-2.7,0-4.1-0.4-5.3-1.7c-1.8-1.8-2.4-3.8-2.4-11.7s0.7-10,2.4-11.8
		c1.1-1.2,2.6-1.6,5.3-1.6h8c2.7,0,4.2,0.4,5.4,1.6c1.8,1.8,2.1,4,2.1,11.7v0.8c0,0.8-0.2,1.1-1.1,1.1H173.5z M173.5,128.2h9.1
		c0-3.6-0.2-4.8-0.6-5.2c-0.3-0.3-0.7-0.4-2.2-0.4h-3.3c-1.5,0-2,0.1-2.4,0.5C173.8,123.4,173.6,124.3,173.5,128.2z"/>
	<path class="st0" d="M218.4,129.5c-1.2,1.2-2.9,1.6-5.5,1.6h-9.5v6.7h4.4v6.1h-16.1v-6.1h4.1v-21.9h-4.1v-6.1h21.2
		c2.6,0,4.3,0.3,5.5,1.6c1.5,1.5,2.2,3.2,2.2,9C220.6,126.4,219.8,128.1,218.4,129.5z M209.8,125.2c1.4,0,1.9-0.1,2.2-0.4
		c0.4-0.5,0.6-1.2,0.6-4.3c0-3.1-0.1-3.8-0.6-4.3c-0.3-0.2-0.8-0.4-2.2-0.4h-6.5v9.3H209.8z"/>
	<path class="st0" d="M236.7,138.1v5.8h-14.5v-5.8h3.6v-15.1h-3.6v-5.8H233v4.1c2.8-2.9,4.2-4.1,6.3-4.1h2.4v7.3h-3
		c-2,0-3.6,0.2-5.7,1.1v12.7H236.7z"/>
	<path class="st0" d="M245.3,142.2c-1.8-1.8-2.4-4.2-2.4-11.7c0-7.6,0.7-10,2.4-11.8c1.1-1.2,2.6-1.6,5.3-1.6h8.7
		c2.7,0,4.2,0.4,5.4,1.6c1.8,1.8,2.4,4.2,2.4,11.8c0,7.6-0.6,10-2.4,11.7c-1.2,1.2-2.6,1.7-5.4,1.7h-8.7
		C247.9,143.9,246.4,143.4,245.3,142.2z M250.7,137.6c0.3,0.3,0.7,0.4,2,0.4h4.5c1.3,0,1.7-0.1,1.9-0.4c0.4-0.4,0.6-1.4,0.6-7.1
		c0-5.7-0.2-6.7-0.6-7.1c-0.3-0.3-0.7-0.5-1.9-0.5h-4.5c-1.3,0-1.7,0.1-2,0.5c-0.4,0.4-0.6,1.4-0.6,7.1
		C250.1,136.2,250.3,137.2,250.7,137.6z"/>
</g>
<path d="M173.4,57.6c-2.3-1.6-4.9-2.9-7.5-4c0.3-2.2,0.5-4.4,0.5-6.7c0-1.1,0-2.1-0.1-3.2c0,0,0,0,0,0c-0.2-2.6-0.5-5.2-1.1-7.6
	c-4.7-1.3-9.6-1.9-14.6-1.9c-11.5,0-22.2,3.5-31.1,9.5c-0.1,1.4-0.2,2.8-0.2,4.1c0,22,12.7,41,31.2,50.1c14.2-6.9,25-19.7,29.2-35.2
	C177.9,60.7,175.7,59,173.4,57.6C173.4,57.5,173.4,57.5,173.4,57.6z M150.6,89.5c-14.2-8.8-23.8-24.4-24.2-42.2
	c7.2-3.9,15.4-6,24.2-6c2.8,0,5.6,0.2,8.3,0.7c0.2,1.6,0.4,3.3,0.4,5c0,1.5-0.1,3-0.3,4.5c-2.7-0.6-5.6-0.9-8.5-0.9
	c-0.1,0-0.1,0-0.2,0v0c-5.3,0-10.4,1.1-15.1,3c1.7,10.7,7.3,20,15.3,26.4c0,0,0,0,0,0v0.1c6.2-4.9,11-11.6,13.6-19.2
	c2.5,1.1,4.9,2.5,7,4.2C167.1,75.1,159.8,83.7,150.6,89.5z M157.1,58.5c-1.5,4.2-3.7,8-6.6,11.3c-2.9-3.3-5.1-7.1-6.6-11.3
	c2.1-0.4,4.3-0.6,6.5-0.6C152.7,57.8,155,58,157.1,58.5z"/>
<path class="st0" d="M181.7,43.6c-2.3-1.6-4.8-3-7.3-4.2c0.2,2.1,0.4,4.2,0.4,6.3c0,0.5,0,1,0,1.5c0,0,0,0,0,0c0,0.5,0,0.9-0.1,1.4
	c0.8,0.4,1.5,0.8,2.3,1.3c1.6,1,3.2,2,4.6,3.2c0.2-1.8,0.3-3.5,0.3-5.3C181.8,46.3,181.8,44.9,181.7,43.6z"/>
</svg>
