<?xml version="1.0" encoding="utf-8"?>
<!-- Generator: Adobe Illustrator 23.0.1, SVG Export Plug-In . SVG Version: 6.00 Build 0)  -->
<svg version="1.1" id="Layer_1" xmlns="http://www.w3.org/2000/svg" xmlns:xlink="http://www.w3.org/1999/xlink" x="0px" y="0px"
	 viewBox="0 0 440 450" style="enable-background:new 0 0 440 450;" xml:space="preserve">
<style type="text/css">
	.st0{fill:#FFFFFF;}
	.st1{fill:#FCAF17;}
</style>
<path class="st0" d="M380.9,165.3c-16.5-11.2-34.2-20.8-52.9-28.4c2.4-15.3,3.7-31,3.7-47c0-7.6-0.3-15-0.9-22.4c0,0,0.1,0,0.1,0
	c-1.1-18.4-3.9-36.4-8-53.8C290.1,4.8,255.6,0,220,0C138.9,0,63.6,24.6,1.1,66.7C0.4,76.4,0,86.1,0,95.9
	c0,154.9,89.7,288.8,220,352.6c99.7-48.9,175.7-138.8,205.8-247.7c-13.6-13-28.6-25-44.9-35.7C380.9,165.2,380.9,165.2,380.9,165.3z
	 M220.6,389.9C120.6,327.8,53.2,218.2,49.9,92.6C100.6,65.5,158.5,50.1,220,50.1c19.9,0,39.5,1.6,58.6,4.7
	c1.6,11.5,2.5,23.1,2.5,35.1c0,10.8-0.7,21.5-2.1,31.9c-19.3-4.1-39.4-6.3-59.9-6.3c-0.5,0-1,0-1.6,0v0.2
	c-37.6,0.2-73.5,7.7-106.4,21.1c11.7,75.1,51.4,140.8,108,185.8c0.1-0.1,0.2-0.1,0.3-0.2v0.4c43.7-34.5,77.4-81.4,96.1-135.5
	c17.7,7.8,34.2,17.8,49.4,29.5C336.3,288.7,285.4,349.3,220.6,389.9z M266.1,171.7c-10.4,29.5-26.2,56.4-46.3,79.4
	c-20.1-23.1-35.9-50-46.3-79.6c14.9-2.9,30.2-4.5,45.9-4.5C235.4,167.1,251,168.7,266.1,171.7z"/>
<path class="st1" d="M438.9,66.7c-16.3-11-33.5-20.8-51.4-29.3c1.8,14.6,2.7,29.5,2.7,44.5c0,3.5-0.1,7-0.2,10.5c0,0,0.1,0,0.1,0.1
	c-0.1,3.2-0.2,6.4-0.4,9.6c5.3,2.9,10.6,5.9,15.9,9.1c11.4,6.9,22.3,14.3,32.6,22.2c1.2-12.4,1.8-24.9,1.8-37.6
	C440,86.1,439.6,76.4,438.9,66.7z"/>
</svg>
